<svg width="56" height="56" viewBox="0 0 56 56" fill="none" xmlns="http://www.w3.org/2000/svg">
<g clip-path="url(#clip0)">
<path d="M31.7833 21C29.5761 21 20.0998 21.2166 14 30.4008V21C14 15.2097 9.29031 10.5 3.5 10.5C1.56734 10.5 0 12.0673 0 14C0 15.9327 1.56734 17.5 3.5 17.5C5.42937 17.5 7 19.0706 7 21V49C7 52.8609 10.1391 56 14 56H33.25C34.2169 56 35 55.2169 35 54.25V52.5C35 50.5673 33.4327 49 31.5 49H28L42 38.5V54.25C42 55.2169 42.7831 56 43.75 56H47.25C48.2169 56 49 55.2169 49 54.25V31.7034C47.8745 31.9955 46.7152 32.2 45.5 32.2C38.7395 32.2 33.0837 27.382 31.7833 21ZM49 10.5H42L35 3.5V18.2C35 23.9991 39.7009 28.7 45.5 28.7C51.2991 28.7 56 23.9991 56 18.2V3.5L49 10.5ZM41.125 19.25C40.1581 19.25 39.375 18.4669 39.375 17.5C39.375 16.5331 40.1581 15.75 41.125 15.75C42.0919 15.75 42.875 16.5331 42.875 17.5C42.875 18.4669 42.0919 19.25 41.125 19.25ZM49.875 19.25C48.9081 19.25 48.125 18.4669 48.125 17.5C48.125 16.5331 48.9081 15.75 49.875 15.75C50.8419 15.75 51.625 16.5331 51.625 17.5C51.625 18.4669 50.8419 19.25 49.875 19.25Z" fill="#F7F9FB"/>
</g>
<defs>
<clipPath id="clip0">
<rect width="56" height="56" fill="white"/>
</clipPath>
</defs>
</svg>
