<svg width="58" height="52" viewBox="0 0 58 52" fill="none" xmlns="http://www.w3.org/2000/svg">
<path d="M56.0794 17.422L56.0805 17.4264C56.7149 20.0149 56.1338 22.6735 54.5108 24.7562C54.4419 24.8417 54.3486 24.9372 54.2208 25.0585C54.1873 25.0903 54.1475 25.1274 54.1044 25.1675C54.0061 25.2592 53.8907 25.3668 53.7946 25.4629L53.5017 25.7558V26.17V45.8333C53.5017 48.3977 51.3994 50.5 48.8351 50.5H9.16839C6.60401 50.5 4.50173 48.3977 4.50173 45.8333V26.17V25.7863L4.24502 25.501C4.1115 25.3527 3.96053 25.2112 3.84876 25.1065C3.82474 25.084 3.80253 25.0631 3.7827 25.0443C3.65199 24.9203 3.57364 24.8379 3.51713 24.7602L3.50715 24.7464L3.49671 24.7331C1.87454 22.6547 1.31325 20.0208 1.92462 17.4196C1.9248 17.4188 1.92497 17.4181 1.92514 17.4174L4.89905 5.04029L4.89906 5.04029L4.9 5.03632C5.39035 2.95819 7.23193 1.5 9.31006 1.5H48.6651C50.7708 1.5 52.5874 2.9299 53.1047 5.04162C53.1049 5.04245 53.1051 5.04329 53.1053 5.04412L56.0794 17.422ZM49.5524 5.90471L49.3673 5.13424L48.5749 5.13835L43.1065 5.16668L41.986 5.17249L42.1188 6.28517L43.7615 20.0498C44.0131 22.3586 45.909 24.1667 48.1834 24.1667C50.0332 24.1667 51.1418 23.0836 51.6341 22.4515C52.564 21.2698 52.8796 19.7658 52.5279 18.2884L52.5274 18.2864L49.5524 5.90471ZM31.8351 5.16667H30.8351V6.16667V19.455C30.8351 21.9794 32.7755 24.1667 35.2917 24.1667C36.7138 24.1667 37.9069 23.637 38.7375 22.6619C39.6632 21.6231 40.0869 20.2337 39.9108 18.8506C39.9107 18.8491 39.9105 18.8476 39.9103 18.8462L38.3813 6.04804L38.276 5.16667H37.3884H31.8351ZM18.064 18.8525L18.0629 18.8619L18.0619 18.8713C17.9214 20.2417 18.3411 21.6218 19.2343 22.6579L19.2454 22.6708L19.2569 22.6833C20.102 23.5987 21.2371 24.1667 22.5134 24.1667C25.1923 24.1667 27.1684 22.0168 27.1684 19.455V6.16667V5.16667H26.1684H20.6151H19.7294L19.6224 6.04588L18.064 18.8525ZM9.31006 5.16667H8.51523L8.33586 5.94099L5.47559 18.2884C5.47534 18.2894 5.4751 18.2904 5.47485 18.2915C5.1284 19.7505 5.4297 21.2862 6.39714 22.4516C6.89336 23.1229 8.03176 24.1667 9.82006 24.1667C12.1085 24.1667 13.9595 22.3452 14.2409 20.0588L14.2413 20.0552L15.8847 6.28517L16.0182 5.16667H14.8917H9.31006ZM8.16839 45.8333V46.8333H9.16839H48.8634H49.8634V45.8333V28.7483V27.6155L48.7394 27.7561C48.6321 27.7695 48.5113 27.7908 48.4319 27.8048C48.4081 27.809 48.388 27.8126 48.3732 27.8151C48.2857 27.8296 48.2429 27.8333 48.2117 27.8333C46.0307 27.8333 44.0449 26.9326 42.5782 25.4406L41.8711 24.7214L41.158 25.4346C39.6337 26.9588 37.617 27.8333 35.5184 27.8333C33.2438 27.8333 31.222 26.9256 29.7249 25.4791L29.0241 24.8021L28.3291 25.4851C26.8555 26.9334 24.8912 27.8333 22.7117 27.8333C20.4033 27.8333 18.3896 26.9503 16.8738 25.4346L16.1607 24.7214L15.4536 25.4406C13.9869 26.9326 12.001 27.8333 9.82006 27.8333C9.78886 27.8333 9.74609 27.8296 9.65862 27.8151C9.64374 27.8126 9.62367 27.809 9.59987 27.8048C9.52048 27.7908 9.39969 27.7695 9.29243 27.7561L8.16839 27.6155V28.7483V45.8333Z" stroke="url(#paint0_linear)" stroke-width="2"/>
<defs>
<linearGradient id="paint0_linear" x1="29.0078" y1="0.5" x2="29.0078" y2="51.5" gradientUnits="userSpaceOnUse">
<stop stop-color="#267E2E"/>
<stop offset="1" stop-color="#77E280"/>
</linearGradient>
</defs>
</svg>
