<svg width="130" height="84" viewBox="0 0 130 84" fill="none" xmlns="http://www.w3.org/2000/svg">
<path d="M70.352 0C52.6827 0 37.5908 11.3878 31.7629 27.345C31.879 27.3923 31.9951 27.416 32.1112 27.4634C37.8926 11.6719 52.8453 0.378805 70.352 0.378805C92.8506 0.378805 111.17 19.0586 111.17 42C111.17 64.9414 92.8506 83.6212 70.352 83.6212C58.2087 83.6212 47.2729 78.1759 39.7965 69.5581C39.7036 69.6291 39.6108 69.7238 39.5179 69.7948C47.0639 78.4837 58.0926 84 70.352 84C93.0596 84 111.541 65.1545 111.541 42C111.541 18.8455 93.0596 0 70.352 0Z" fill="#AFBBC6"/>
<path d="M52.1254 47.8951C52.0325 47.9898 51.9164 48.0608 51.7771 48.1081C51.6378 48.1555 51.4985 48.1792 51.3592 48.1792C51.0341 48.1792 50.7787 48.0845 50.5929 47.8951C50.4072 47.7057 50.3375 47.4452 50.3375 47.1375V44.6279H49.641V44.3201H50.3375V43.4915H50.709V44.3201H51.9164V44.6279H50.709V47.0901C50.709 47.3505 50.7787 47.5399 50.8948 47.6583C51.0109 47.7767 51.1966 47.8477 51.4288 47.8477C51.661 47.8477 51.87 47.7767 52.0093 47.6346L52.1254 47.8951ZM54.0061 44.4858C54.2615 44.3438 54.5401 44.2727 54.9116 44.2727V44.6279H54.8187C54.4008 44.6279 54.0757 44.7699 53.8435 45.0304C53.6113 45.2908 53.4952 45.6696 53.4952 46.1431V48.1318H53.1238V44.2964H53.472V45.1251C53.5881 44.8646 53.7507 44.6515 54.0061 44.4858ZM59.0445 46.3088H55.8171C55.8171 46.6166 55.91 46.877 56.0493 47.1138C56.1886 47.3505 56.3743 47.5163 56.6065 47.6583C56.8387 47.8004 57.1173 47.8477 57.4192 47.8477C57.6746 47.8477 57.8835 47.8004 58.0925 47.7057C58.3015 47.611 58.4872 47.4926 58.6265 47.3032L58.8355 47.5399C58.673 47.7293 58.464 47.8951 58.2086 48.0134C57.9532 48.1318 57.6978 48.1792 57.3959 48.1792C57.0245 48.1792 56.6762 48.0845 56.3976 47.9187C56.0957 47.753 55.8635 47.5163 55.701 47.2322C55.5385 46.9481 55.4456 46.5929 55.4456 46.2141C55.4456 45.8353 55.5153 45.5039 55.6778 45.2198C55.8403 44.912 56.0493 44.6989 56.3279 44.5332C56.6065 44.3674 56.9084 44.2727 57.2566 44.2727C57.6049 44.2727 57.9068 44.3438 58.1854 44.5095C58.464 44.6752 58.673 44.912 58.8355 45.1961C58.998 45.4802 59.0677 45.8116 59.0677 46.1904L59.0445 46.3088ZM56.5369 44.7699C56.3279 44.8883 56.1654 45.054 56.0261 45.2671C55.91 45.4802 55.8171 45.7406 55.8171 46.001H58.6962C58.673 45.7169 58.6033 45.4802 58.4872 45.2671C58.3479 45.054 58.1854 44.8883 57.9764 44.7699C57.7674 44.6515 57.5353 44.5805 57.2566 44.5805C56.978 44.5805 56.7458 44.6515 56.5369 44.7699ZM62.3879 44.6279C62.6433 44.8646 62.7594 45.2198 62.7594 45.6933V48.1318H62.4111V47.4452C62.295 47.682 62.1093 47.8477 61.8771 47.9661C61.6449 48.0845 61.3663 48.1555 61.0412 48.1555C60.6233 48.1555 60.2983 48.0608 60.0429 47.8477C59.8107 47.6583 59.6714 47.3742 59.6714 47.0428C59.6714 46.735 59.7874 46.4745 59.9964 46.2615C60.2286 46.0721 60.5769 45.9537 61.0645 45.9537H62.3647V45.6933C62.3647 45.3381 62.2718 45.054 62.0861 44.8883C61.9003 44.6989 61.6217 44.6042 61.2502 44.6042C60.9948 44.6042 60.7626 44.6515 60.5304 44.7462C60.2983 44.8409 60.1125 44.9593 59.95 45.1014L59.7642 44.8409C59.95 44.6752 60.1822 44.5332 60.4376 44.4385C60.693 44.3438 60.9716 44.2964 61.2734 44.2964C61.7842 44.2727 62.1325 44.3911 62.3879 44.6279ZM61.9235 47.6346C62.1325 47.4926 62.295 47.2795 62.4111 46.9954V46.2851H61.1341C60.7626 46.2851 60.5072 46.3562 60.3215 46.4982C60.1589 46.6403 60.0661 46.8297 60.0661 47.0664C60.0661 47.3269 60.1589 47.5163 60.3447 47.6583C60.5304 47.8004 60.7858 47.8714 61.1109 47.8714C61.436 47.8714 61.6914 47.8004 61.9235 47.6346ZM64.3383 48.0134C64.0596 47.9187 63.8507 47.8004 63.6881 47.6583L63.8507 47.3742C64.0132 47.5163 64.199 47.611 64.4544 47.7057C64.6865 47.8004 64.9419 47.8477 65.2206 47.8477C65.5921 47.8477 65.8707 47.7767 66.0564 47.6583C66.2422 47.5399 66.3351 47.3505 66.3351 47.1375C66.3351 46.9717 66.2886 46.8534 66.1957 46.7586C66.1029 46.6639 65.9868 46.5929 65.8242 46.5456C65.6849 46.4982 65.476 46.4509 65.2206 46.4035C64.9187 46.3562 64.6865 46.2851 64.5008 46.2378C64.315 46.1668 64.1525 46.0721 64.0364 45.93C63.8971 45.788 63.8507 45.5986 63.8507 45.3381C63.8507 45.0304 63.9668 44.7936 64.2222 44.5805C64.4776 44.3911 64.8259 44.2727 65.267 44.2727C65.4992 44.2727 65.7546 44.2964 65.9868 44.3674C66.219 44.4385 66.4047 44.5332 66.5672 44.6279L66.4047 44.912C66.2422 44.7936 66.0796 44.7226 65.8707 44.6515C65.6849 44.6042 65.476 44.5568 65.267 44.5568C64.9187 44.5568 64.6633 44.6279 64.4776 44.7462C64.2918 44.8883 64.2222 45.054 64.2222 45.2671C64.2222 45.4328 64.2686 45.5749 64.3847 45.6696C64.4776 45.7643 64.6169 45.8353 64.7562 45.8827C64.8955 45.93 65.1045 45.9774 65.3831 46.0247C65.6849 46.0721 65.9171 46.1431 66.1029 46.1904C66.2886 46.2615 66.4279 46.3562 66.5672 46.4982C66.6833 46.6403 66.753 46.8297 66.753 47.0664C66.753 47.3742 66.6137 47.6346 66.3583 47.824C66.1029 48.0134 65.7314 48.1081 65.267 48.1081C64.8955 48.1555 64.6169 48.1081 64.3383 48.0134ZM71.002 44.2964V48.1318H70.6537V47.3032C70.5376 47.5636 70.3518 47.7767 70.0964 47.9424C69.841 48.0845 69.5624 48.1555 69.2374 48.1555C68.7498 48.1555 68.3551 48.0134 68.0764 47.7293C67.7978 47.4452 67.6585 47.0428 67.6585 46.5219V44.2727H68.03V46.4745C68.03 46.9007 68.1461 47.2322 68.3551 47.4689C68.564 47.7057 68.8659 47.8004 69.2606 47.8004C69.6785 47.8004 70.0268 47.6583 70.259 47.3979C70.5144 47.1375 70.6305 46.7587 70.6305 46.3088V44.2727H71.002V44.2964ZM73.4167 44.4858C73.6721 44.3438 73.9507 44.2727 74.3222 44.2727V44.6279H74.2293C73.8114 44.6279 73.4863 44.7699 73.2541 45.0304C73.022 45.2908 72.9059 45.6696 72.9059 46.1431V48.1318H72.5344V44.2964H72.8826V45.1251C72.9755 44.8646 73.1613 44.6515 73.4167 44.4858ZM78.4319 46.3088H75.2045C75.2045 46.6166 75.2974 46.877 75.4367 47.1138C75.576 47.3505 75.7617 47.5163 75.9939 47.6583C76.2261 47.7767 76.5047 47.8477 76.8066 47.8477C77.062 47.8477 77.2709 47.8004 77.4799 47.7057C77.6889 47.611 77.8746 47.4926 78.0139 47.3032L78.2229 47.5399C78.0604 47.7293 77.8514 47.8951 77.596 48.0134C77.3406 48.1318 77.0852 48.1792 76.7833 48.1792C76.4119 48.1792 76.0636 48.0845 75.785 47.9187C75.4831 47.753 75.2509 47.5163 75.0884 47.2322C74.9259 46.9481 74.833 46.5929 74.833 46.2141C74.833 45.8353 74.9026 45.5039 75.0652 45.2198C75.2277 44.912 75.4367 44.6989 75.7153 44.5332C75.9939 44.3674 76.2958 44.2727 76.644 44.2727C76.9923 44.2727 77.2942 44.3438 77.5728 44.5095C77.8514 44.6752 78.0604 44.912 78.2229 45.1961C78.3854 45.4802 78.4551 45.8116 78.4551 46.1904L78.4319 46.3088ZM75.9475 44.7699C75.7385 44.8883 75.576 45.054 75.4367 45.2671C75.3206 45.4802 75.2277 45.7406 75.2277 46.001H78.1068C78.0836 45.7169 78.0139 45.4802 77.8978 45.2671C77.7585 45.054 77.596 44.8883 77.387 44.7699C77.1781 44.6515 76.9459 44.5805 76.6673 44.5805C76.3886 44.5805 76.1564 44.6515 75.9475 44.7699Z" fill="#AFBBC6"/>
<path d="M63.1775 53.2694C64.1295 54.2164 64.5938 55.6133 64.5938 57.46V64.7283H60.995V58.0282C60.995 57.0338 60.786 56.2762 60.3448 55.779C59.9037 55.2818 59.3 55.0451 58.4642 55.0451C57.5586 55.0451 56.8389 55.3292 56.2816 55.8974C55.7476 56.4656 55.469 57.3179 55.469 58.4543V64.7283H51.8701V52.0383H55.3064V53.5299C55.794 52.9853 56.3745 52.5828 57.0943 52.2987C57.814 52.0146 58.5802 51.8726 59.4393 51.8726C60.995 51.8726 62.2255 52.3461 63.1775 53.2694ZM77.3175 53.2694C78.3391 54.1928 78.8732 55.6133 78.8732 57.5073V64.7519H75.5065V63.1657C74.8332 64.3495 73.5561 64.9413 71.7219 64.9413C70.7699 64.9413 69.9341 64.7756 69.2375 64.4442C68.541 64.1127 68.0069 63.6629 67.6354 63.071C67.2639 62.4791 67.0782 61.8399 67.0782 61.0823C67.0782 59.8985 67.5193 58.9752 68.3784 58.3123C69.2375 57.6257 70.5842 57.2942 72.4184 57.2942H75.2743C75.2743 56.4893 75.0421 55.8737 74.5545 55.4476C74.0669 55.0214 73.3704 54.8083 72.3952 54.8083C71.7219 54.8083 71.0718 54.903 70.4449 55.1161C69.7947 55.3292 69.2607 55.6133 68.8196 55.9684L67.5193 53.3878C68.1927 52.8906 69.0053 52.5355 69.9573 52.2514C70.9092 51.991 71.8844 51.8489 72.8828 51.8489C74.8099 51.8726 76.2959 52.3461 77.3175 53.2694ZM74.2527 62.0056C74.7403 61.7215 75.0653 61.2954 75.2743 60.7271V59.425H72.7899C71.3039 59.425 70.561 59.9222 70.561 60.9165C70.561 61.3901 70.7467 61.7689 71.095 62.0293C71.4665 62.3134 71.9541 62.4318 72.581 62.4318C73.2079 62.4554 73.7651 62.3134 74.2527 62.0056ZM90.1573 64.1127C89.809 64.3731 89.3679 64.5862 88.8571 64.7046C88.3463 64.8466 87.789 64.894 87.2318 64.894C85.7458 64.894 84.6081 64.5152 83.7955 63.7339C82.9828 62.9526 82.5881 61.8399 82.5881 60.3483V55.1398H80.661V52.3224H82.5881V49.2446H86.187V52.3224H89.275V55.1635H86.187V60.3247C86.187 60.8692 86.3263 61.2717 86.5817 61.5558C86.8603 61.8399 87.2318 61.9819 87.7194 61.9819C88.2998 61.9819 88.7642 61.8162 89.1821 61.5084L90.1573 64.1127ZM104.715 52.062V64.7519H101.302V63.2367C100.815 63.7813 100.257 64.2074 99.584 64.4915C98.9107 64.7756 98.2141 64.9177 97.4247 64.9177C95.7994 64.9177 94.4992 64.4442 93.5472 63.4735C92.5952 62.5265 92.1077 61.0823 92.1077 59.2119V52.0383H95.7065V58.6674C95.7065 60.7035 96.5424 61.7215 98.2373 61.7215C99.0964 61.7215 99.793 61.4374 100.327 60.8692C100.861 60.301 101.116 59.4487 101.116 58.3123V52.0383H104.715V52.062ZM113.26 52.3461C114.003 52.0383 114.839 51.8726 115.79 51.8726V55.2582C115.396 55.2345 115.117 55.2108 114.978 55.2108C113.956 55.2108 113.144 55.4949 112.54 56.0868C111.959 56.6787 111.658 57.5547 111.658 58.7384V64.7283H108.059V52.0383H111.495V53.7193C111.936 53.1274 112.517 52.6539 113.26 52.3461ZM129.93 59.425H120.527C120.69 60.2063 121.107 60.8218 121.734 61.2954C122.361 61.7452 123.151 61.9819 124.103 61.9819C124.753 61.9819 125.333 61.8872 125.821 61.6978C126.332 61.5084 126.796 61.2007 127.214 60.7745L129.141 62.9053C127.98 64.2784 126.262 64.965 124.01 64.965C122.617 64.965 121.363 64.6809 120.295 64.1364C119.227 63.5682 118.391 62.8106 117.787 61.8162C117.207 60.8218 116.905 59.7091 116.905 58.4543C116.905 57.2232 117.184 56.0868 117.764 55.0924C118.344 54.0981 119.134 53.3168 120.156 52.7486C121.154 52.1804 122.292 51.9199 123.545 51.9199C124.753 51.9199 125.867 52.1804 126.842 52.7249C127.818 53.2694 128.607 54.027 129.164 55.0214C129.722 56.0158 130 57.1759 130 58.5017C130 58.5017 129.977 58.8094 129.93 59.425ZM121.502 55.3529C120.945 55.8264 120.597 56.4656 120.481 57.2942H126.61C126.494 56.4893 126.146 55.85 125.589 55.3765C125.031 54.903 124.358 54.6663 123.545 54.6663C122.733 54.6426 122.059 54.8793 121.502 55.3529Z" fill="#AFBBC6"/>
<path d="M29.4642 55.8265C30.0679 56.4658 30.3465 57.3181 30.3465 58.3835C30.3465 59.4489 30.0447 60.3012 29.4642 60.9404C28.8605 61.5796 28.1175 61.8874 27.1888 61.8874C26.26 61.8874 25.4938 61.5796 24.8902 60.9404C24.2865 60.3012 23.9846 59.4489 23.9846 58.3835C23.9846 57.3181 24.2865 56.4658 24.8902 55.8265C25.4938 55.1873 26.26 54.8795 27.1888 54.8795C28.0943 54.8795 28.8605 55.211 29.4642 55.8265ZM48.3408 50.76C48.3408 64.3733 37.521 75.406 24.1704 75.406C10.8198 75.406 0 64.3733 0 50.76C0 37.1467 10.8198 26.114 24.1704 26.114C37.521 26.114 48.3408 37.1467 48.3408 50.76ZM35.292 38.1174C36.8477 38.1174 38.1247 39.4195 38.1247 41.0058C38.1247 41.1715 38.3801 41.1715 38.3801 41.0058C38.3801 39.4195 39.6571 38.1174 41.2127 38.1174C41.3752 38.1174 41.3752 37.857 41.2127 37.857C39.6571 37.857 38.3801 36.5548 38.3801 34.9686C38.3801 34.8029 38.1247 34.8029 38.1247 34.9686C38.1247 36.5548 36.8477 37.857 35.292 37.857C35.1295 37.857 35.1295 38.1174 35.292 38.1174ZM33.9918 58.4071C33.9918 57.1524 33.6899 56.0159 33.1095 55.0453C32.529 54.0509 31.7164 53.2696 30.6716 52.7251C29.6499 52.1569 28.4658 51.8964 27.1656 51.8964C25.8653 51.8964 24.6812 52.1805 23.6364 52.7251C22.5915 53.2933 21.7789 54.0509 21.1984 55.0453C20.618 56.0396 20.3161 57.1524 20.3161 58.4071C20.3161 59.6619 20.618 60.7984 21.1984 61.769C21.7789 62.7634 22.5915 63.5447 23.6364 64.0892C24.6812 64.6574 25.8421 64.9179 27.1656 64.9179C28.4658 64.9179 29.6499 64.6338 30.6716 64.0892C31.6932 63.521 32.5058 62.7634 33.1095 61.769C33.7132 60.7747 33.9918 59.6619 33.9918 58.4071ZM39.1231 43.4207C39.2856 43.4207 39.2856 43.1602 39.1231 43.1602C35.7332 43.1602 32.9934 40.3666 32.9934 36.91C32.9934 36.7442 32.738 36.7442 32.738 36.91C32.738 40.3666 29.9982 43.1602 26.6083 43.1602C26.4458 43.1602 26.4458 43.4207 26.6083 43.4207C29.9982 43.4207 32.738 46.2144 32.738 49.671C32.738 49.8367 32.9934 49.8367 32.9934 49.671C32.9934 46.2144 35.7332 43.4207 39.1231 43.4207ZM40.3536 52.3463V51.8017C40.3536 50.5706 40.9109 49.9551 42.0021 49.9551C42.5594 49.9551 43.047 50.0971 43.4649 50.4049L44.4169 47.7533C44.0918 47.5402 43.6971 47.3745 43.2095 47.2561C42.7219 47.1377 42.2111 47.0903 41.6771 47.0903C40.1447 47.0903 38.9605 47.5165 38.1247 48.3688C37.2888 49.2211 36.8709 50.3575 36.8709 51.8017V52.3699H34.9437V55.1636H36.8709V64.7285H40.4697V55.1636H43.5578V52.3463H40.3536ZM44.3936 41.8818C43.372 41.8818 42.513 41.0295 42.513 39.9641C42.513 39.7983 42.2575 39.7983 42.2575 39.9641C42.2575 41.0295 41.4217 41.8818 40.3769 41.8818C40.2143 41.8818 40.2143 42.1422 40.3769 42.1422C41.3985 42.1422 42.2575 42.9945 42.2575 44.0599C42.2575 44.2256 42.513 44.2256 42.513 44.0599C42.513 42.9945 43.3488 42.1422 44.3936 42.1422C44.5562 42.1422 44.5562 41.8818 44.3936 41.8818Z" fill="#AFBBC6"/>
</svg>
