<svg width="130" height="60" viewBox="0 0 130 60" fill="none" xmlns="http://www.w3.org/2000/svg">
<path d="M70.3517 -21C52.6825 -21 37.5905 -10.0189 31.7627 5.36838C31.8788 5.41404 31.9949 5.43687 32.111 5.48252C37.8924 -9.74493 52.845 -20.6347 70.3517 -20.6347C92.8504 -20.6347 111.17 -2.62204 111.17 19.5C111.17 41.622 92.8504 59.6347 70.3517 59.6347C58.2085 59.6347 47.2726 54.3839 39.7963 46.0738C39.7034 46.1423 39.6105 46.2337 39.5176 46.3021C47.0636 54.6807 58.0924 60 70.3517 60C93.0593 60 111.541 41.8275 111.541 19.5C111.541 -2.82751 93.0593 -21 70.3517 -21Z" fill="url(#paint0_linear)"/>
<path d="M52.1255 25.1846C52.0326 25.2759 51.9165 25.3444 51.7772 25.3901C51.6379 25.4357 51.4986 25.4585 51.3593 25.4585C51.0342 25.4585 50.7788 25.3672 50.5931 25.1846C50.4073 25.002 50.3377 24.7508 50.3377 24.454V22.0341H49.6411V21.7373H50.3377V20.9383H50.7092V21.7373H51.9165V22.0341H50.7092V24.4084C50.7092 24.6595 50.7788 24.8421 50.8949 24.9563C51.011 25.0704 51.1967 25.1389 51.4289 25.1389C51.6611 25.1389 51.8701 25.0704 52.0094 24.9335L52.1255 25.1846ZM54.0062 21.8971C54.2616 21.7601 54.5402 21.6916 54.9117 21.6916V22.0341H54.8188C54.4009 22.0341 54.0758 22.1711 53.8436 22.4222C53.6115 22.6733 53.4954 23.0386 53.4954 23.4952V25.4129H53.1239V21.7145H53.4722V22.5135C53.5882 22.2624 53.7508 22.0569 54.0062 21.8971ZM59.0446 23.655H55.8172C55.8172 23.9518 55.9101 24.2029 56.0494 24.4312C56.1887 24.6595 56.3745 24.8193 56.6066 24.9563C56.8388 25.0933 57.1174 25.1389 57.4193 25.1389C57.6747 25.1389 57.8837 25.0933 58.0926 25.002C58.3016 24.9106 58.4873 24.7965 58.6266 24.6138L58.8356 24.8421C58.6731 25.0248 58.4641 25.1846 58.2087 25.2987C57.9533 25.4129 57.6979 25.4585 57.3961 25.4585C57.0246 25.4585 56.6763 25.3672 56.3977 25.2074C56.0958 25.0476 55.8636 24.8193 55.7011 24.5454C55.5386 24.2714 55.4457 23.929 55.4457 23.5637C55.4457 23.1984 55.5154 22.8788 55.6779 22.6048C55.8404 22.308 56.0494 22.1026 56.328 21.9428C56.6066 21.783 56.9085 21.6916 57.2568 21.6916C57.605 21.6916 57.9069 21.7601 58.1855 21.9199C58.4641 22.0797 58.6731 22.308 58.8356 22.582C58.9981 22.856 59.0678 23.1756 59.0678 23.5409L59.0446 23.655ZM56.537 22.1711C56.328 22.2852 56.1655 22.445 56.0262 22.6505C55.9101 22.856 55.8172 23.1071 55.8172 23.3582H58.6963C58.6731 23.0843 58.6034 22.856 58.4873 22.6505C58.348 22.445 58.1855 22.2852 57.9765 22.1711C57.7676 22.0569 57.5354 21.9884 57.2568 21.9884C56.9781 21.9884 56.746 22.0569 56.537 22.1711ZM62.388 22.0341C62.6434 22.2624 62.7595 22.6048 62.7595 23.0614V25.4129H62.4112V24.7508C62.2952 24.9791 62.1094 25.1389 61.8772 25.2531C61.645 25.3672 61.3664 25.4357 61.0414 25.4357C60.6234 25.4357 60.2984 25.3444 60.043 25.1389C59.8108 24.9563 59.6715 24.6823 59.6715 24.3627C59.6715 24.0659 59.7876 23.8148 59.9965 23.6093C60.2287 23.4267 60.577 23.3126 61.0646 23.3126H62.3648V23.0614C62.3648 22.719 62.2719 22.445 62.0862 22.2852C61.9004 22.1026 61.6218 22.0113 61.2503 22.0113C60.9949 22.0113 60.7627 22.0569 60.5306 22.1482C60.2984 22.2396 60.1126 22.3537 59.9501 22.4907L59.7643 22.2396C59.9501 22.0797 60.1823 21.9428 60.4377 21.8514C60.6931 21.7601 60.9717 21.7145 61.2735 21.7145C61.7843 21.6916 62.1326 21.8058 62.388 22.0341ZM61.9237 24.9335C62.1326 24.7965 62.2952 24.591 62.4112 24.3171V23.6322H61.1342C60.7627 23.6322 60.5073 23.7007 60.3216 23.8376C60.1591 23.9746 60.0662 24.1573 60.0662 24.3856C60.0662 24.6367 60.1591 24.8193 60.3448 24.9563C60.5306 25.0933 60.786 25.1618 61.111 25.1618C61.4361 25.1618 61.6915 25.0933 61.9237 24.9335ZM64.3384 25.2987C64.0598 25.2074 63.8508 25.0933 63.6883 24.9563L63.8508 24.6823C64.0133 24.8193 64.1991 24.9106 64.4545 25.002C64.6867 25.0933 64.9421 25.1389 65.2207 25.1389C65.5922 25.1389 65.8708 25.0704 66.0565 24.9563C66.2423 24.8421 66.3352 24.6595 66.3352 24.454C66.3352 24.2942 66.2887 24.1801 66.1959 24.0888C66.103 23.9974 65.9869 23.929 65.8244 23.8833C65.685 23.8376 65.4761 23.792 65.2207 23.7463C64.9188 23.7007 64.6867 23.6322 64.5009 23.5865C64.3152 23.518 64.1526 23.4267 64.0365 23.2897C63.8972 23.1527 63.8508 22.9701 63.8508 22.719C63.8508 22.4222 63.9669 22.1939 64.2223 21.9884C64.4777 21.8058 64.826 21.6916 65.2671 21.6916C65.4993 21.6916 65.7547 21.7145 65.9869 21.783C66.2191 21.8514 66.4048 21.9428 66.5673 22.0341L66.4048 22.308C66.2423 22.1939 66.0798 22.1254 65.8708 22.0569C65.685 22.0113 65.4761 21.9656 65.2671 21.9656C64.9188 21.9656 64.6634 22.0341 64.4777 22.1482C64.2919 22.2852 64.2223 22.445 64.2223 22.6505C64.2223 22.8103 64.2687 22.9473 64.3848 23.0386C64.4777 23.1299 64.617 23.1984 64.7563 23.2441C64.8956 23.2897 65.1046 23.3354 65.3832 23.381C65.685 23.4267 65.9172 23.4952 66.103 23.5409C66.2887 23.6093 66.428 23.7007 66.5673 23.8376C66.6834 23.9746 66.7531 24.1573 66.7531 24.3856C66.7531 24.6823 66.6138 24.9335 66.3584 25.1161C66.103 25.2987 65.7315 25.3901 65.2671 25.3901C64.8956 25.4357 64.617 25.3901 64.3384 25.2987ZM71.0021 21.7145V25.4129H70.6538V24.6138C70.5377 24.865 70.3519 25.0704 70.0965 25.2303C69.8411 25.3672 69.5625 25.4357 69.2375 25.4357C68.7499 25.4357 68.3552 25.2987 68.0765 25.0248C67.7979 24.7508 67.6586 24.3627 67.6586 23.8605V21.6916H68.0301V23.8148C68.0301 24.2257 68.1462 24.5454 68.3552 24.7737C68.5641 25.002 68.866 25.0933 69.2607 25.0933C69.6786 25.0933 70.0269 24.9563 70.2591 24.7052C70.5145 24.454 70.6306 24.0888 70.6306 23.655V21.6916H71.0021V21.7145ZM73.4168 21.8971C73.6722 21.7601 73.9508 21.6916 74.3223 21.6916V22.0341H74.2294C73.8115 22.0341 73.4864 22.1711 73.2543 22.4222C73.0221 22.6733 72.906 23.0386 72.906 23.4952V25.4129H72.5345V21.7145H72.8828V22.5135C72.9756 22.2624 73.1614 22.0569 73.4168 21.8971ZM78.432 23.655H75.2046C75.2046 23.9518 75.2975 24.2029 75.4368 24.4312C75.5761 24.6595 75.7618 24.8193 75.994 24.9563C76.2262 25.0704 76.5048 25.1389 76.8067 25.1389C77.0621 25.1389 77.271 25.0933 77.48 25.002C77.689 24.9106 77.8747 24.7965 78.014 24.6138L78.223 24.8421C78.0605 25.0248 77.8515 25.1846 77.5961 25.2987C77.3407 25.4129 77.0853 25.4585 76.7835 25.4585C76.412 25.4585 76.0637 25.3672 75.7851 25.2074C75.4832 25.0476 75.251 24.8193 75.0885 24.5454C74.926 24.2714 74.8331 23.929 74.8331 23.5637C74.8331 23.1984 74.9028 22.8788 75.0653 22.6048C75.2278 22.308 75.4368 22.1026 75.7154 21.9428C75.994 21.783 76.2959 21.6916 76.6441 21.6916C76.9924 21.6916 77.2943 21.7601 77.5729 21.9199C77.8515 22.0797 78.0605 22.308 78.223 22.582C78.3855 22.856 78.4552 23.1756 78.4552 23.5409L78.432 23.655ZM75.9476 22.1711C75.7386 22.2852 75.5761 22.445 75.4368 22.6505C75.3207 22.856 75.2278 23.1071 75.2278 23.3582H78.1069C78.0837 23.0843 78.014 22.856 77.8979 22.6505C77.7586 22.445 77.5961 22.2852 77.3871 22.1711C77.1782 22.0569 76.946 21.9884 76.6674 21.9884C76.3887 21.9884 76.1566 22.0569 75.9476 22.1711Z" fill="url(#paint1_linear)"/>
<path d="M63.1775 30.367C64.1295 31.2802 64.5938 32.6271 64.5938 34.4078V41.4166H60.995V34.9557C60.995 33.9969 60.786 33.2663 60.3448 32.7869C59.9037 32.3075 59.3 32.0792 58.4642 32.0792C57.5586 32.0792 56.8389 32.3532 56.2816 32.9011C55.7476 33.449 55.469 34.2709 55.469 35.3667V41.4166H51.8701V29.1798H55.3064V30.6181C55.794 30.093 56.3745 29.7049 57.0943 29.4309C57.814 29.157 58.5802 29.02 59.4393 29.02C60.995 29.02 62.2255 29.4766 63.1775 30.367ZM77.3175 30.367C78.3391 31.2573 78.8732 32.6271 78.8732 34.4535V41.4394H75.5065V39.9098C74.8331 41.0513 73.5561 41.622 71.7219 41.622C70.7699 41.622 69.9341 41.4622 69.2375 41.1426C68.541 40.823 68.0069 40.3892 67.6354 39.8185C67.2639 39.2477 67.0782 38.6313 67.0782 37.9008C67.0782 36.7593 67.5193 35.8689 68.3784 35.2297C69.2375 34.5676 70.5842 34.248 72.4184 34.248H75.2743C75.2743 33.4718 75.0421 32.8782 74.5545 32.4673C74.0669 32.0564 73.3704 31.8509 72.3952 31.8509C71.7219 31.8509 71.0718 31.9422 70.4449 32.1477C69.7947 32.3532 69.2607 32.6271 68.8196 32.9696L67.5193 30.4811C68.1927 30.0017 69.0053 29.6592 69.9573 29.3853C70.9092 29.1342 71.8844 28.9972 72.8828 28.9972C74.8099 29.02 76.2959 29.4766 77.3175 30.367ZM74.2527 38.7911C74.7403 38.5172 75.0653 38.1063 75.2743 37.5583V36.3027H72.7899C71.3039 36.3027 70.561 36.7821 70.561 37.741C70.561 38.1976 70.7467 38.5628 71.095 38.814C71.4665 39.0879 71.9541 39.2021 72.581 39.2021C73.2079 39.2249 73.7651 39.0879 74.2527 38.7911ZM90.1573 40.823C89.809 41.0741 89.3679 41.2796 88.8571 41.3937C88.3463 41.5307 87.789 41.5764 87.2318 41.5764C85.7458 41.5764 84.6081 41.2111 83.7955 40.4577C82.9828 39.7043 82.5881 38.6313 82.5881 37.1931V32.1705H80.661V29.4538H82.5881V26.4859H86.187V29.4538H89.275V32.1933H86.187V37.1702C86.187 37.6953 86.3263 38.0834 86.5817 38.3574C86.8603 38.6313 87.2318 38.7683 87.7194 38.7683C88.2998 38.7683 88.7642 38.6085 89.1821 38.3117L90.1573 40.823ZM104.715 29.2026V41.4394H101.302V39.9783C100.815 40.5034 100.257 40.9143 99.584 41.1883C98.9107 41.4622 98.2141 41.5992 97.4247 41.5992C95.7994 41.5992 94.4992 41.1426 93.5472 40.2066C92.5952 39.2934 92.1077 37.9008 92.1077 36.0972V29.1798H95.7065V35.5722C95.7065 37.5355 96.5424 38.5172 98.2373 38.5172C99.0964 38.5172 99.793 38.2432 100.327 37.6953C100.861 37.1474 101.116 36.3255 101.116 35.2297V29.1798H104.715V29.2026ZM113.26 29.4766C114.003 29.1798 114.839 29.02 115.79 29.02V32.2847C115.396 32.2618 115.117 32.239 114.978 32.239C113.956 32.239 113.144 32.513 112.54 33.0837C111.959 33.6544 111.658 34.4992 111.658 35.6406V41.4166H108.059V29.1798H111.495V30.8007C111.936 30.23 112.517 29.7734 113.26 29.4766ZM129.93 36.3027H120.527C120.69 37.0561 121.107 37.6497 121.734 38.1063C122.361 38.54 123.151 38.7683 124.103 38.7683C124.753 38.7683 125.333 38.677 125.821 38.4944C126.332 38.3117 126.796 38.0149 127.214 37.604L129.141 39.6587C127.98 40.9828 126.262 41.6449 124.01 41.6449C122.617 41.6449 121.363 41.3709 120.295 40.8458C119.227 40.2979 118.391 39.5674 117.787 38.6085C117.207 37.6497 116.905 36.5767 116.905 35.3667C116.905 34.1795 117.184 33.0837 117.764 32.1249C118.344 31.166 119.134 30.4126 120.156 29.8647C121.154 29.3168 122.292 29.0657 123.545 29.0657C124.753 29.0657 125.867 29.3168 126.842 29.8419C127.818 30.367 128.607 31.0975 129.164 32.0564C129.722 33.0152 130 34.1339 130 35.4123C130 35.4123 129.977 35.7091 129.93 36.3027ZM121.502 32.376C120.945 32.8326 120.597 33.449 120.481 34.248H126.61C126.494 33.4718 126.146 32.8554 125.589 32.3988C125.031 31.9422 124.358 31.7139 123.545 31.7139C122.733 31.6911 122.059 31.9194 121.502 32.376Z" fill="url(#paint2_linear)"/>
<path d="M29.4642 32.8326C30.0679 33.449 30.3465 34.2709 30.3465 35.2982C30.3465 36.3256 30.0447 37.1474 29.4642 37.7638C28.8605 38.3802 28.1175 38.677 27.1888 38.677C26.26 38.677 25.4938 38.3802 24.8902 37.7638C24.2865 37.1474 23.9846 36.3256 23.9846 35.2982C23.9846 34.2709 24.2865 33.449 24.8902 32.8326C25.4938 32.2162 26.26 31.9194 27.1888 31.9194C28.0943 31.9194 28.8605 32.239 29.4642 32.8326ZM48.3408 27.947C48.3408 41.0742 37.521 51.7128 24.1704 51.7128C10.8198 51.7128 0 41.0742 0 27.947C0 14.8199 10.8198 4.18124 24.1704 4.18124C37.521 4.18124 48.3408 14.8199 48.3408 27.947ZM35.292 15.7559C36.8477 15.7559 38.1247 17.0116 38.1247 18.5412C38.1247 18.701 38.3801 18.701 38.3801 18.5412C38.3801 17.0116 39.6571 15.7559 41.2127 15.7559C41.3752 15.7559 41.3752 15.5048 41.2127 15.5048C39.6571 15.5048 38.3801 14.2492 38.3801 12.7196C38.3801 12.5598 38.1247 12.5598 38.1247 12.7196C38.1247 14.2492 36.8477 15.5048 35.292 15.5048C35.1295 15.5048 35.1295 15.7559 35.292 15.7559ZM33.9918 35.321C33.9918 34.1111 33.6899 33.0152 33.1095 32.0792C32.529 31.1204 31.7164 30.367 30.6716 29.8419C29.6499 29.294 28.4658 29.0429 27.1656 29.0429C25.8653 29.0429 24.6812 29.3168 23.6364 29.8419C22.5915 30.3898 21.7789 31.1204 21.1984 32.0792C20.618 33.0381 20.3161 34.1111 20.3161 35.321C20.3161 36.531 20.618 37.6269 21.1984 38.5629C21.7789 39.5217 22.5915 40.2751 23.6364 40.8002C24.6812 41.3481 25.8421 41.5992 27.1656 41.5992C28.4658 41.5992 29.6499 41.3253 30.6716 40.8002C31.6932 40.2523 32.5058 39.5217 33.1095 38.5629C33.7132 37.604 33.9918 36.531 33.9918 35.321ZM39.1231 20.8698C39.2856 20.8698 39.2856 20.6187 39.1231 20.6187C35.7332 20.6187 32.9934 17.9248 32.9934 14.5916C32.9934 14.4318 32.738 14.4318 32.738 14.5916C32.738 17.9248 29.9982 20.6187 26.6083 20.6187C26.4458 20.6187 26.4458 20.8698 26.6083 20.8698C29.9982 20.8698 32.738 23.5637 32.738 26.8969C32.738 27.0567 32.9934 27.0567 32.9934 26.8969C32.9934 23.5637 35.7332 20.8698 39.1231 20.8698ZM40.3536 29.4766V28.9515C40.3536 27.7644 40.9109 27.1708 42.0021 27.1708C42.5594 27.1708 43.047 27.3078 43.4649 27.6046L44.4169 25.0477C44.0918 24.8422 43.6971 24.6824 43.2095 24.5682C42.7219 24.4541 42.2111 24.4084 41.6771 24.4084C40.1447 24.4084 38.9605 24.8194 38.1247 25.6412C37.2888 26.4631 36.8709 27.5589 36.8709 28.9515V29.4995H34.9437V32.1934H36.8709V41.4166H40.4697V32.1934H43.5578V29.4766H40.3536ZM44.3936 19.3859C43.372 19.3859 42.513 18.564 42.513 17.5367C42.513 17.3769 42.2575 17.3769 42.2575 17.5367C42.2575 18.564 41.4217 19.3859 40.3769 19.3859C40.2143 19.3859 40.2143 19.637 40.3769 19.637C41.3985 19.637 42.2575 20.4589 42.2575 21.4862C42.2575 21.646 42.513 21.646 42.513 21.4862C42.513 20.4589 43.3488 19.637 44.3936 19.637C44.5562 19.637 44.5562 19.3859 44.3936 19.3859Z" fill="url(#paint3_linear)"/>
<defs>
<linearGradient id="paint0_linear" x1="31.7468" y1="19.495" x2="111.531" y2="19.495" gradientUnits="userSpaceOnUse">
<stop stop-color="#74B65F"/>
<stop offset="1" stop-color="#3C5F42"/>
</linearGradient>
<linearGradient id="paint1_linear" x1="49.6282" y1="23.1762" x2="78.4474" y2="23.1762" gradientUnits="userSpaceOnUse">
<stop stop-color="#74B65F"/>
<stop offset="1" stop-color="#3C5F42"/>
</linearGradient>
<linearGradient id="paint2_linear" x1="51.8905" y1="34.0489" x2="130.002" y2="34.0489" gradientUnits="userSpaceOnUse">
<stop stop-color="#74B65F"/>
<stop offset="1" stop-color="#3C5F42"/>
</linearGradient>
<linearGradient id="paint3_linear" x1="2.31518e-06" y1="27.9421" x2="48.3298" y2="27.9421" gradientUnits="userSpaceOnUse">
<stop stop-color="#F9DDA4"/>
<stop offset="0.1584" stop-color="#F7D8A1"/>
<stop offset="0.3737" stop-color="#F2C997"/>
<stop offset="0.6217" stop-color="#EBB189"/>
<stop offset="0.8923" stop-color="#E39478"/>
<stop offset="0.8989" stop-color="#E39377"/>
<stop offset="1" stop-color="#E28F74"/>
</linearGradient>
</defs>
</svg>
